<svg xmlns="http://www.w3.org/2000/svg" width="1200" height="630" viewBox="0 0 1200 630">
  <defs>
    <linearGradient id="bg-gradient" x1="0%" y1="0%" x2="100%" y2="100%">
      <stop offset="0%" style="stop-color:#0f172a"/>
      <stop offset="50%" style="stop-color:#1e293b"/>
      <stop offset="100%" style="stop-color:#0f172a"/>
    </linearGradient>
    <radialGradient id="glow" cx="30%" cy="50%" r="50%">
      <stop offset="0%" style="stop-color:#BE3E82;stop-opacity:0.15"/>
      <stop offset="100%" style="stop-color:#BE3E82;stop-opacity:0"/>
    </radialGradient>
  </defs>

  <!-- Background -->
  <rect width="1200" height="630" fill="url(#bg-gradient)"/>
  <rect width="1200" height="630" fill="url(#glow)"/>

  <!-- Subtle grid -->
  <g opacity="0.03" stroke="#ffffff" stroke-width="1">
    <line x1="0" y1="157" x2="1200" y2="157"/>
    <line x1="0" y1="315" x2="1200" y2="315"/>
    <line x1="0" y1="473" x2="1200" y2="473"/>
    <line x1="300" y1="0" x2="300" y2="630"/>
    <line x1="600" y1="0" x2="600" y2="630"/>
    <line x1="900" y1="0" x2="900" y2="630"/>
  </g>

  <!-- Actual GeneFoundry Logo (from genefoundry_logo.svg) -->
  <g transform="translate(-410, -50) scale(0.6)">
    <path fill="#BE3E82" d="m 1174.4116,583.33774 c -8.4777,-29.42969 -30.4081,-55.14772 -32.9366,-86.91616 l 128.0869,75.93728 c -29.8787,10.17075 -57.8896,23.48872 -88.7459,31.20277 -53.1278,13.28201 -110.7499,21.49596 -157.364,52.1258 -16.5253,10.8586 -31.00681,23.83293 -44.19931,38.50941 -11.84447,13.17692 -20.96399,28.43002 -27.94061,44.67509 -34.31587,79.90381 -13.8323,157.91872 16.27418,235.13109 13.8881,35.61788 30.01605,68.01328 51.60594,99.72488 12.8404,18.8599 27.2157,37.2829 42.7677,53.9795 10.3503,11.112 23.2008,21.4456 31.9399,33.8515 -37.1694,-29.4776 -73.8856,-55.7607 -103.88844,-93.3204 -10.06929,-12.6056 -19.24891,-25.668 -27.81217,-39.341 -3.0051,-4.7983 -6.43481,-14.6628 -11.97923,-16.8311 -9.15402,-3.5802 -24.90305,-0.5521 -34.72695,-0.5521 h -81.42672 c -10.17358,0 -29.00593,-3.5451 -37.46105,3.1406 -5.16557,4.0847 -4.62467,10.1533 -4.62467,16.0724 v 34.7663 c 0,5.228 -0.97731,11.5943 1.29679,16.455 4.35569,9.3102 14.67017,9.2742 23.4057,10.9929 18.78276,3.6959 37.07376,8.6794 54.89442,15.7392 46.18468,18.2963 88.72557,54.0257 109.50649,99.5385 20.90943,45.7944 6.17892,102.5117 -38.14375,128.0736 -10.26709,5.9212 -22.34761,9.8831 -33.85156,12.606 -6.47571,1.5328 -14.7129,1.374 -19.81661,6.1927 -4.28057,4.0413 -3.9706,9.6562 -3.97097,15.0662 v 33.8516 c 0,5.8539 0.0641,12.0542 5.5297,15.6507 6.98998,4.6003 22.01431,1.7325 30.15167,1.7325 h 75.93726 286.36579 83.2565 c 8.4352,0 24.2638,3.0568 30.9014,-3.1054 4.6824,-4.3473 3.8651,-11.2378 3.8651,-17.0225 0,-13.7007 4.8079,-37.5554 -7.3334,-47.088 -5.2135,-4.0935 -11.21,-4.2895 -17.3691,-5.7438 -10.3776,-2.4502 -20.5204,-5.619 -30.1919,-10.1966 -35.5657,-16.8337 -53.3283,-56.8679 -37.6276,-93.4207 19.191,-44.6783 77.0791,-43.8146 117.2245,-53.8638 65.8779,-16.4905 141.355,-57.8945 162.1482,-127.2879 1.7831,-5.9509 3.4692,-16.447 -3.9094,-19.4488 -10.2253,-4.1597 -28.273,-0.679 -39.3008,-0.679 h -91.4908 -53.9795 c -5.2007,0 -16.2475,2.087 -20.646,-0.9403 -2.9602,-2.0373 -2.2255,-6.9521 -2.2267,-10.0386 0,-8.3085 -0.7763,-18.184 -10.9789,-19.9224 -9.5755,-1.6316 -20.48,-0.1625 -30.1919,-0.2062 -21.0358,-0.094 -42.0836,7e-4 -63.1286,7e-4 -60.0725,0 -120.1776,-0.9149 -180.2366,-0.9149 6.0671,-12.18008 18.5553,-19.35188 29.277,-26.92072 25.1689,-17.76776 53.1639,-30.62962 75.9373,-51.84324 12.8274,-11.94885 24.1877,-25.28358 33.4625,-40.17404 33.8775,-54.38905 28.0896,-121.46932 7.0722,-179.32176 -5.6002,-15.41538 -14.1137,-29.71438 -20.4067,-44.83045 -15.948,5.18745 -34.4927,11.44136 -51.2349,12.8087 1.4593,8.47494 6.6329,16.0991 10.2644,23.78758 8.6832,18.38324 20.8584,41.59566 21.7574,62.21368 -34.0886,-15.93538 -66.5252,-38.66879 -98.81,-58.05003 -10.1598,-6.09912 -20.3163,-14.02258 -31.1068,-18.80216 5.5721,-7.19786 16.3337,-8.84038 24.7025,-11.24502 19.9884,-5.74353 40.1867,-10.50088 60.3838,-15.4059 62.4036,-15.15526 126.8173,-30.86504 179.3218,-69.85199 36.8544,-27.36603 62.8915,-64.13741 77.6119,-107.52134 4.7607,-14.03063 11.4654,-33.60319 7.5436,-48.49007 -4.9639,-18.84204 -30.3244,-23.50872 -42.8749,-9.135 -6.5911,7.54854 -6.3517,18.09565 -8.0768,27.43313 -1.8663,10.10207 -5.9006,19.43653 -8.5864,29.27702 l -42.0857,-25.06466 -104.2995,-61.72439 -50.3198,-29.40413 c 7.5261,-12.25262 22.1107,-22.81907 24.2966,-37.51118 2.7629,-18.56976 -17.0152,-31.22577 -33.4457,-24.7695 -15.4629,6.07611 -26.8311,25.89235 -35.293,39.40801 -36.6501,58.53796 -41.3643,131.5448 -17.0324,195.79009 5.0413,13.31093 10.132,26.54917 16.421,39.341 1.6713,3.39963 3.927,11.71733 7.7478,13.08969 3.9786,1.4291 10.4978,-1.52681 14.4331,-2.42988 11.7194,-2.68944 24.4372,-4.58783 35.6813,-8.83 m -30.1919,-187.55592 c 9.0708,2.6681 17.463,9.51494 25.6173,14.25018 17.7626,10.3146 35.5313,20.85502 53.0647,31.55168 18.1882,11.09625 36.5294,21.95497 54.8944,32.75303 14.7246,8.65767 29.0853,17.91887 43.9155,26.40309 5.238,2.99658 16.2025,7.38895 19.4537,12.5066 2.4786,3.90142 -4.4943,9.78778 -6.7185,12.4522 -6.9989,8.3845 -14.7594,15.9136 -23.7141,22.21331 -2.7834,1.95813 -6.503,5.3496 -10.0639,5.51133 -3.8266,0.17377 -7.8836,-3.70096 -10.979,-5.58125 -9.1724,-5.57187 -18.2968,-11.22134 -27.4471,-16.82682 -31.1268,-19.0682 -63.5695,-36.14218 -94.2355,-55.95128 -8.1828,-5.28585 -27.2503,-11.91613 -31.5515,-20.8234 -2.4428,-5.05891 -1.0323,-11.10944 -0.6029,-16.40892 1.1514,-14.21008 3.3625,-28.62378 8.3669,-42.04975 m 43.9155,469.34726 c -62.5886,-38.62444 -125.3613,-79.79334 -190.30059,-114.36336 4.00979,-12.09315 16.52239,-22.74681 25.61739,-31.18804 3.115,-2.89113 7.2078,-8.38626 11.8937,-8.43329 10.9603,-0.10989 26.3337,14.06234 35.6814,19.20814 31.6109,17.40143 61.8177,37.32232 93.3205,54.8972 9.0181,5.03099 17.5745,10.83024 26.5323,15.9728 3.9764,2.28279 9.4161,4.4519 11.2147,9.02621 1.8749,4.76864 -0.038,11.61637 -0.9721,16.45425 -2.6996,13.99344 -6.3338,25.78068 -12.9873,38.42609 M 987.77066,781.87255 c 23.71374,16.93449 50.92714,30.19863 75.93724,45.1961 16.4443,9.86105 33.1001,19.33556 49.4049,29.43796 13.0077,8.0596 26.4418,15.4013 39.341,23.63937 3.9573,2.52727 12.5191,5.81153 14.7924,9.98636 2.2242,4.08457 -4.9468,8.875 -7.4731,11.06644 -8.2201,7.1304 -16.6168,13.39347 -25.6174,19.50599 -3.3613,2.2828 -7.4758,6.43852 -11.8938,5.85867 -5.5689,-0.73097 -11.8117,-6.06014 -16.4683,-8.99317 -10.2127,-6.4326 -20.7551,-12.37804 -31.1069,-18.58962 l -65.8732,-39.52383 c -7.1659,-4.29946 -21.31877,-8.98132 -25.60539,-16.38088 -4.94388,-8.53436 -1.47666,-23.55326 -0.95937,-32.84127 0.4504,-8.08819 0.38901,-21.83905 5.52192,-28.36212 m 3.65963,104.29939 c 24.78401,14.48205 49.48301,29.13944 74.10741,43.91554 5.1299,3.07832 23.5168,10.4256 24.8105,16.469 0.872,4.07409 -9.4207,10.45285 -12.0019,12.80802 -9.4177,8.593 -18.4285,17.51369 -27.4471,26.53227 -4.7567,4.75669 -9.3975,10.8529 -15.5535,13.72363 -15.3509,-25.40731 -27.2075,-52.34 -36.59619,-80.51181 -3.0534,-9.16213 -9.65004,-23.22658 -7.31922,-32.93665 z"/>
  </g>

  <!-- Background logo (faded, right side) -->
  <g transform="translate(750, -150) scale(0.8)" opacity="0.06">
    <path fill="#BE3E82" d="m 1174.4116,583.33774 c -8.4777,-29.42969 -30.4081,-55.14772 -32.9366,-86.91616 l 128.0869,75.93728 c -29.8787,10.17075 -57.8896,23.48872 -88.7459,31.20277 -53.1278,13.28201 -110.7499,21.49596 -157.364,52.1258 -16.5253,10.8586 -31.00681,23.83293 -44.19931,38.50941 -11.84447,13.17692 -20.96399,28.43002 -27.94061,44.67509 -34.31587,79.90381 -13.8323,157.91872 16.27418,235.13109 13.8881,35.61788 30.01605,68.01328 51.60594,99.72488 12.8404,18.8599 27.2157,37.2829 42.7677,53.9795 10.3503,11.112 23.2008,21.4456 31.9399,33.8515 -37.1694,-29.4776 -73.8856,-55.7607 -103.88844,-93.3204 -10.06929,-12.6056 -19.24891,-25.668 -27.81217,-39.341 -3.0051,-4.7983 -6.43481,-14.6628 -11.97923,-16.8311 -9.15402,-3.5802 -24.90305,-0.5521 -34.72695,-0.5521 h -81.42672 c -10.17358,0 -29.00593,-3.5451 -37.46105,3.1406 -5.16557,4.0847 -4.62467,10.1533 -4.62467,16.0724 v 34.7663 c 0,5.228 -0.97731,11.5943 1.29679,16.455 4.35569,9.3102 14.67017,9.2742 23.4057,10.9929 18.78276,3.6959 37.07376,8.6794 54.89442,15.7392 46.18468,18.2963 88.72557,54.0257 109.50649,99.5385 20.90943,45.7944 6.17892,102.5117 -38.14375,128.0736 -10.26709,5.9212 -22.34761,9.8831 -33.85156,12.606 -6.47571,1.5328 -14.7129,1.374 -19.81661,6.1927 -4.28057,4.0413 -3.9706,9.6562 -3.97097,15.0662 v 33.8516 c 0,5.8539 0.0641,12.0542 5.5297,15.6507 6.98998,4.6003 22.01431,1.7325 30.15167,1.7325 h 75.93726 286.36579 83.2565 c 8.4352,0 24.2638,3.0568 30.9014,-3.1054 4.6824,-4.3473 3.8651,-11.2378 3.8651,-17.0225 0,-13.7007 4.8079,-37.5554 -7.3334,-47.088 -5.2135,-4.0935 -11.21,-4.2895 -17.3691,-5.7438 -10.3776,-2.4502 -20.5204,-5.619 -30.1919,-10.1966 -35.5657,-16.8337 -53.3283,-56.8679 -37.6276,-93.4207 19.191,-44.6783 77.0791,-43.8146 117.2245,-53.8638 65.8779,-16.4905 141.355,-57.8945 162.1482,-127.2879 1.7831,-5.9509 3.4692,-16.447 -3.9094,-19.4488 -10.2253,-4.1597 -28.273,-0.679 -39.3008,-0.679 h -91.4908 -53.9795 c -5.2007,0 -16.2475,2.087 -20.646,-0.9403 -2.9602,-2.0373 -2.2255,-6.9521 -2.2267,-10.0386 0,-8.3085 -0.7763,-18.184 -10.9789,-19.9224 -9.5755,-1.6316 -20.48,-0.1625 -30.1919,-0.2062 -21.0358,-0.094 -42.0836,7e-4 -63.1286,7e-4 -60.0725,0 -120.1776,-0.9149 -180.2366,-0.9149 6.0671,-12.18008 18.5553,-19.35188 29.277,-26.92072 25.1689,-17.76776 53.1639,-30.62962 75.9373,-51.84324 12.8274,-11.94885 24.1877,-25.28358 33.4625,-40.17404 33.8775,-54.38905 28.0896,-121.46932 7.0722,-179.32176 -5.6002,-15.41538 -14.1137,-29.71438 -20.4067,-44.83045 -15.948,5.18745 -34.4927,11.44136 -51.2349,12.8087 1.4593,8.47494 6.6329,16.0991 10.2644,23.78758 8.6832,18.38324 20.8584,41.59566 21.7574,62.21368 -34.0886,-15.93538 -66.5252,-38.66879 -98.81,-58.05003 -10.1598,-6.09912 -20.3163,-14.02258 -31.1068,-18.80216 5.5721,-7.19786 16.3337,-8.84038 24.7025,-11.24502 19.9884,-5.74353 40.1867,-10.50088 60.3838,-15.4059 62.4036,-15.15526 126.8173,-30.86504 179.3218,-69.85199 36.8544,-27.36603 62.8915,-64.13741 77.6119,-107.52134 4.7607,-14.03063 11.4654,-33.60319 7.5436,-48.49007 -4.9639,-18.84204 -30.3244,-23.50872 -42.8749,-9.135 -6.5911,7.54854 -6.3517,18.09565 -8.0768,27.43313 -1.8663,10.10207 -5.9006,19.43653 -8.5864,29.27702 l -42.0857,-25.06466 -104.2995,-61.72439 -50.3198,-29.40413 c 7.5261,-12.25262 22.1107,-22.81907 24.2966,-37.51118 2.7629,-18.56976 -17.0152,-31.22577 -33.4457,-24.7695 -15.4629,6.07611 -26.8311,25.89235 -35.293,39.40801 -36.6501,58.53796 -41.3643,131.5448 -17.0324,195.79009 5.0413,13.31093 10.132,26.54917 16.421,39.341 1.6713,3.39963 3.927,11.71733 7.7478,13.08969 3.9786,1.4291 10.4978,-1.52681 14.4331,-2.42988 11.7194,-2.68944 24.4372,-4.58783 35.6813,-8.83 m -30.1919,-187.55592 c 9.0708,2.6681 17.463,9.51494 25.6173,14.25018 17.7626,10.3146 35.5313,20.85502 53.0647,31.55168 18.1882,11.09625 36.5294,21.95497 54.8944,32.75303 14.7246,8.65767 29.0853,17.91887 43.9155,26.40309 5.238,2.99658 16.2025,7.38895 19.4537,12.5066 2.4786,3.90142 -4.4943,9.78778 -6.7185,12.4522 -6.9989,8.3845 -14.7594,15.9136 -23.7141,22.21331 -2.7834,1.95813 -6.503,5.3496 -10.0639,5.51133 -3.8266,0.17377 -7.8836,-3.70096 -10.979,-5.58125 -9.1724,-5.57187 -18.2968,-11.22134 -27.4471,-16.82682 -31.1268,-19.0682 -63.5695,-36.14218 -94.2355,-55.95128 -8.1828,-5.28585 -27.2503,-11.91613 -31.5515,-20.8234 -2.4428,-5.05891 -1.0323,-11.10944 -0.6029,-16.40892 1.1514,-14.21008 3.3625,-28.62378 8.3669,-42.04975 m 43.9155,469.34726 c -62.5886,-38.62444 -125.3613,-79.79334 -190.30059,-114.36336 4.00979,-12.09315 16.52239,-22.74681 25.61739,-31.18804 3.115,-2.89113 7.2078,-8.38626 11.8937,-8.43329 10.9603,-0.10989 26.3337,14.06234 35.6814,19.20814 31.6109,17.40143 61.8177,37.32232 93.3205,54.8972 9.0181,5.03099 17.5745,10.83024 26.5323,15.9728 3.9764,2.28279 9.4161,4.4519 11.2147,9.02621 1.8749,4.76864 -0.038,11.61637 -0.9721,16.45425 -2.6996,13.99344 -6.3338,25.78068 -12.9873,38.42609 M 987.77066,781.87255 c 23.71374,16.93449 50.92714,30.19863 75.93724,45.1961 16.4443,9.86105 33.1001,19.33556 49.4049,29.43796 13.0077,8.0596 26.4418,15.4013 39.341,23.63937 3.9573,2.52727 12.5191,5.81153 14.7924,9.98636 2.2242,4.08457 -4.9468,8.875 -7.4731,11.06644 -8.2201,7.1304 -16.6168,13.39347 -25.6174,19.50599 -3.3613,2.2828 -7.4758,6.43852 -11.8938,5.85867 -5.5689,-0.73097 -11.8117,-6.06014 -16.4683,-8.99317 -10.2127,-6.4326 -20.7551,-12.37804 -31.1069,-18.58962 l -65.8732,-39.52383 c -7.1659,-4.29946 -21.31877,-8.98132 -25.60539,-16.38088 -4.94388,-8.53436 -1.47666,-23.55326 -0.95937,-32.84127 0.4504,-8.08819 0.38901,-21.83905 5.52192,-28.36212 m 3.65963,104.29939 c 24.78401,14.48205 49.48301,29.13944 74.10741,43.91554 5.1299,3.07832 23.5168,10.4256 24.8105,16.469 0.872,4.07409 -9.4207,10.45285 -12.0019,12.80802 -9.4177,8.593 -18.4285,17.51369 -27.4471,26.53227 -4.7567,4.75669 -9.3975,10.8529 -15.5535,13.72363 -15.3509,-25.40731 -27.2075,-52.34 -36.59619,-80.51181 -3.0534,-9.16213 -9.65004,-23.22658 -7.31922,-32.93665 z"/>
  </g>

  <!-- Text -->
  <g transform="translate(320, 260)">
    <text x="0" y="0" font-family="system-ui, -apple-system, 'Segoe UI', Roboto, sans-serif" font-size="72" font-weight="700" fill="#ffffff">
      Gene<tspan fill="#BE3E82">Foundry</tspan>
    </text>
    <text x="0" y="70" font-family="system-ui, -apple-system, 'Segoe UI', Roboto, sans-serif" font-size="36" font-weight="400" fill="#94a3b8">
      Forging Trust in Genomic AI
    </text>
    <text x="0" y="130" font-family="system-ui, -apple-system, 'Segoe UI', Roboto, sans-serif" font-size="22" font-weight="400" fill="#64748b">
      Trustworthy analysis powered by Model Context Protocols
    </text>
  </g>

  <!-- Bottom accent -->
  <rect x="100" y="580" width="200" height="4" rx="2" fill="#BE3E82"/>
  <text x="1100" y="600" font-family="system-ui, -apple-system, 'Segoe UI', Roboto, sans-serif" font-size="18" font-weight="500" fill="#64748b" text-anchor="end">
    genefoundry.org
  </text>
</svg>