<svg xmlns="http://www.w3.org/2000/svg" width="1200" height="630" viewBox="0 0 1200 630">
  <defs>
    <!-- Background gradient -->
    <linearGradient id="bg-gradient" x1="0%" y1="0%" x2="100%" y2="100%">
      <stop offset="0%" style="stop-color:#0f172a"/>
      <stop offset="50%" style="stop-color:#1e293b"/>
      <stop offset="100%" style="stop-color:#0f172a"/>
    </linearGradient>
    <!-- Accent glow -->
    <radialGradient id="glow" cx="30%" cy="50%" r="50%">
      <stop offset="0%" style="stop-color:#BE3E82;stop-opacity:0.15"/>
      <stop offset="100%" style="stop-color:#BE3E82;stop-opacity:0"/>
    </radialGradient>
    <!-- Logo gradient -->
    <linearGradient id="logo-gradient" x1="0%" y1="0%" x2="100%" y2="100%">
      <stop offset="0%" style="stop-color:#BE3E82"/>
      <stop offset="100%" style="stop-color:#c9568b"/>
    </linearGradient>
  </defs>

  <!-- Background -->
  <rect width="1200" height="630" fill="url(#bg-gradient)"/>

  <!-- Subtle glow effect -->
  <rect width="1200" height="630" fill="url(#glow)"/>

  <!-- Decorative grid pattern -->
  <g opacity="0.03" stroke="#ffffff" stroke-width="1">
    <line x1="0" y1="157" x2="1200" y2="157"/>
    <line x1="0" y1="315" x2="1200" y2="315"/>
    <line x1="0" y1="473" x2="1200" y2="473"/>
    <line x1="300" y1="0" x2="300" y2="630"/>
    <line x1="600" y1="0" x2="600" y2="630"/>
    <line x1="900" y1="0" x2="900" y2="630"/>
  </g>

  <!-- DNA helix decorative element (simplified) -->
  <g opacity="0.08" transform="translate(950, 100)">
    <path d="M0,0 Q50,50 0,100 Q-50,150 0,200 Q50,250 0,300 Q-50,350 0,400"
          stroke="#BE3E82" stroke-width="3" fill="none"/>
    <path d="M40,0 Q-10,50 40,100 Q90,150 40,200 Q-10,250 40,300 Q90,350 40,400"
          stroke="#BE3E82" stroke-width="3" fill="none"/>
    <!-- Connection lines -->
    <line x1="0" y1="50" x2="40" y2="50" stroke="#BE3E82" stroke-width="2"/>
    <line x1="0" y1="150" x2="40" y2="150" stroke="#BE3E82" stroke-width="2"/>
    <line x1="0" y1="250" x2="40" y2="250" stroke="#BE3E82" stroke-width="2"/>
    <line x1="0" y1="350" x2="40" y2="350" stroke="#BE3E82" stroke-width="2"/>
  </g>

  <!-- Logo (simplified/stylized version) -->
  <g transform="translate(100, 215) scale(0.18)">
    <path fill="url(#logo-gradient)" d="m 583.679,319.568 c -8.478,-29.43 -30.408,-55.148 -32.937,-86.916 l 128.087,75.937 c -29.879,10.171 -57.89,23.489 -88.746,31.203 -53.128,13.282 -110.75,21.496 -157.364,52.126 -16.525,10.859 -31.007,23.833 -44.199,38.509 -11.845,13.177 -20.964,28.43 -27.941,44.675 -34.316,79.904 -13.832,157.919 16.274,235.131 13.888,35.618 30.016,68.013 51.606,99.725 12.84,18.86 27.216,37.283 42.768,53.98 10.35,11.112 23.201,21.445 31.94,33.851 -37.17,-29.477 -73.886,-55.761 -103.889,-93.32 -10.069,-12.606 -19.249,-25.668 -27.812,-39.341 -3.005,-4.798 -6.435,-14.663 -11.979,-16.831 -9.154,-3.58 -24.903,-0.552 -34.727,-0.552 h -81.427 c -10.173,0 -29.006,-3.545 -37.461,3.141 -5.166,4.084 -4.625,10.153 -4.625,16.072 v 34.766 c 0,5.228 -0.977,11.594 1.297,16.455 4.356,9.31 14.67,9.274 23.406,10.993 18.783,3.696 37.074,8.679 54.894,15.739 46.185,18.296 88.726,54.026 109.507,99.539 20.909,45.794 6.179,102.511 -38.144,128.073 -10.267,5.921 -22.348,9.883 -33.852,12.606 -6.476,1.533 -14.713,1.374 -19.817,6.193 -4.28,4.041 -3.97,9.656 -3.971,15.066 v 33.852 c 0,5.854 0.064,12.054 5.53,15.65 6.99,4.601 22.014,1.733 30.152,1.733 h 75.937 286.366 83.256 c 8.435,0 24.264,3.057 30.901,-3.105 4.683,-4.348 3.865,-11.238 3.865,-17.023 0,-13.7 4.808,-37.555 -7.333,-47.088 -5.214,-4.093 -11.21,-4.289 -17.369,-5.744 -10.378,-2.45 -20.521,-5.619 -30.192,-10.196 -35.566,-16.834 -53.328,-56.868 -37.628,-93.421 19.191,-44.678 77.079,-43.815 117.225,-53.864 65.878,-16.49 141.355,-57.894 162.148,-127.288 1.783,-5.951 3.469,-16.447 -3.909,-19.449 -10.226,-4.16 -28.273,-0.679 -39.301,-0.679 h -91.491 -53.979 c -5.201,0 -16.248,2.087 -20.646,-0.94 -2.96,-2.037 -2.226,-6.952 -2.227,-10.039 0,-8.308 -0.776,-18.184 -10.979,-19.922 -9.575,-1.632 -20.48,-0.163 -30.192,-0.206 -21.036,-0.094 -42.084,0.001 -63.129,0.001 -60.072,0 -120.177,-0.915 -180.236,-0.915 6.067,-12.18 18.555,-19.352 29.277,-26.921 25.169,-17.768 53.164,-30.63 75.937,-51.843 12.827,-11.949 24.188,-25.284 33.463,-40.174 33.877,-54.389 28.089,-121.469 7.072,-179.322 -5.6,-15.415 -14.114,-29.714 -20.407,-44.83 -15.948,5.187 -34.493,11.441 -51.235,12.809 1.459,8.475 6.633,16.099 10.264,23.787 8.684,18.384 20.859,41.596 21.758,62.214 -34.089,-15.935 -66.525,-38.669 -98.81,-58.05 -10.16,-6.099 -20.316,-14.023 -31.107,-18.802 5.572,-7.198 16.334,-8.84 24.703,-11.245 19.988,-5.744 40.186,-10.501 60.383,-15.406 62.404,-15.155 126.818,-30.865 179.322,-69.852 36.854,-27.366 62.891,-64.137 77.612,-107.521 4.761,-14.031 11.465,-33.603 7.544,-48.49 -4.964,-18.842 -30.325,-23.509 -42.875,-9.135 -6.591,7.549 -6.352,18.096 -8.077,27.433 -1.866,10.102 -5.901,19.437 -8.586,29.277 l -42.086,-25.065 -104.299,-61.724 -50.32,-29.404 c 7.526,-12.253 22.111,-22.819 24.297,-37.511 2.763,-18.57 -17.015,-31.226 -33.446,-24.77 -15.463,6.076 -26.831,25.893 -35.293,39.408 -36.65,58.538 -41.364,131.545 -17.032,195.79 5.041,13.311 10.132,26.549 16.421,39.341 1.671,3.4 3.927,11.717 7.748,13.09 3.979,1.429 10.498,-1.527 14.433,-2.43 11.719,-2.689 24.437,-4.588 35.681,-8.83" />
  </g>

  <!-- Text content -->
  <g transform="translate(320, 260)">
    <!-- Brand name -->
    <text x="0" y="0" font-family="system-ui, -apple-system, 'Segoe UI', Roboto, sans-serif" font-size="72" font-weight="700" fill="#ffffff">
      Gene<tspan fill="#BE3E82">Foundry</tspan>
    </text>

    <!-- Tagline -->
    <text x="0" y="70" font-family="system-ui, -apple-system, 'Segoe UI', Roboto, sans-serif" font-size="36" font-weight="400" fill="#94a3b8">
      Forging Trust in Genomic AI
    </text>

    <!-- Subtitle -->
    <text x="0" y="130" font-family="system-ui, -apple-system, 'Segoe UI', Roboto, sans-serif" font-size="22" font-weight="400" fill="#64748b">
      Trustworthy analysis powered by Model Context Protocols
    </text>
  </g>

  <!-- Bottom accent line -->
  <rect x="100" y="580" width="200" height="4" rx="2" fill="#BE3E82"/>

  <!-- URL/Domain -->
  <text x="1100" y="600" font-family="system-ui, -apple-system, 'Segoe UI', Roboto, sans-serif" font-size="18" font-weight="500" fill="#64748b" text-anchor="end">
    genefoundry.org
  </text>
</svg>